<svg width="50" height="50" viewBox="0 0 50 50" fill="none" xmlns="http://www.w3.org/2000/svg">
<path d="M43.9461 28.8935L33.4026 4.83543L31.1036 3.24785L28.4083 2.39299L24.7617 1.41602L20.4808 3.24785L17.627 4.83543L28.4083 28.8935H43.9461Z" fill="url(#paint0_linear_2196_2813)"/>
<path d="M6.1027 20.8499L16.6462 44.9643L18.9452 46.5556L21.6405 47.4125L25.2872 48.3917L29.568 46.5556L32.4219 44.9643L21.6405 20.8499L6.1027 20.8499Z" fill="url(#paint1_linear_2196_2813)"/>
<path d="M17.0682 5.15004L0.699825 28.7185L17.0682 28.8932L28.9005 5.15004C29.7312 2.72108 32.3306 4.13797 33.5264 5.15004C28.4158 -4.17718 20.4249 1.2637 17.0682 5.15004Z" fill="#0056D2"/>
<path d="M32.9318 44.6562L49.3002 21.0877L32.9318 20.913L21.0995 44.6562C20.2688 47.0851 17.6694 45.6682 16.4736 44.6562C21.5842 53.9834 29.5751 48.5425 32.9318 44.6562Z" fill="#0056D2"/>
<defs>
<linearGradient id="paint0_linear_2196_2813" x1="41.2194" y1="28.8935" x2="28.7903" y2="5.5511" gradientUnits="userSpaceOnUse">
<stop/>
<stop offset="0.494792" stop-color="#00368E"/>
<stop offset="1" stop-color="#003DA0"/>
</linearGradient>
<linearGradient id="paint1_linear_2196_2813" x1="8.82946" y1="20.8499" x2="21.3039" y2="44.2227" gradientUnits="userSpaceOnUse">
<stop stop-color="#0C0C0C"/>
<stop offset="0.494792" stop-color="#00368E"/>
<stop offset="1" stop-color="#003DA0"/>
</linearGradient>
</defs>
</svg>
